<svg width="50" height="50" viewBox="0 0 50 50" fill="none" xmlns="http://www.w3.org/2000/svg">
    <path d="M34.4712 27.0832C36.0337 27.0832 37.4087 26.229 38.117 24.9373L45.5754 11.4165C46.3462 10.0415 45.3462 8.33317 43.7629 8.33317H12.9295L10.9712 4.1665H4.15869V8.33317H8.32536L15.8254 24.1457L13.0129 29.229C11.492 32.0207 13.492 35.4165 16.6587 35.4165H41.6587V31.2498H16.6587L18.9504 27.0832H34.4712ZM14.9087 12.4998H40.2212L34.4712 22.9165H19.8462L14.9087 12.4998ZM16.6587 37.4998C14.367 37.4998 12.5129 39.3748 12.5129 41.6665C12.5129 43.9582 14.367 45.8332 16.6587 45.8332C18.9504 45.8332 20.8254 43.9582 20.8254 41.6665C20.8254 39.3748 18.9504 37.4998 16.6587 37.4998ZM37.492 37.4998C35.2004 37.4998 33.3462 39.3748 33.3462 41.6665C33.3462 43.9582 35.2004 45.8332 37.492 45.8332C39.7837 45.8332 41.6587 43.9582 41.6587 41.6665C41.6587 39.3748 39.7837 37.4998 37.492 37.4998Z" fill="#2D9CDB" />
</svg>
